HIERARCHY
ROOT SpineBase
{
  OFFSET 0.000000 0.000000 0.000000
  CHANNELS 6 Xposition Yposition Zposition Zrotation Xrotation Yrotation
  JOINT SpineMid
  {
    OFFSET 0.000000 28.941811 0.000000
    CHANNELS 3 Zrotation Xrotation Yrotation
    JOINT SpineShoulder
    {
      OFFSET 0.033851 21.597344 -0.729718
      CHANNELS 3 Zrotation Xrotation Yrotation
      JOINT Neck
      {
        OFFSET 0.011247 7.156870 -0.531139
        CHANNELS 3 Zrotation Xrotation Yrotation
        JOINT Head
        {
          OFFSET -3.802413 12.811916 -2.718867
          CHANNELS 3 Zrotation Xrotation Yrotation
          End Site
          {
            OFFSET 0 0 0
          }
        }
      }
      JOINT ShoulderLeft
      {
        OFFSET -16.529663 -2.592313 0.379925
        CHANNELS 3 Zrotation Xrotation Yrotation
        JOINT ElbowLeft
        {
          OFFSET -2.569772 -25.195104 -0.628948
          CHANNELS 3 Zrotation Xrotation Yrotation
          JOINT WristLeft
          {
            OFFSET 0.895670 -18.135726 -7.192810
            CHANNELS 3 Zrotation Xrotation Yrotation
            JOINT HandLeft
            {
              OFFSET 0.811829 -5.632329 -2.051666
              CHANNELS 3 Zrotation Xrotation Yrotation
              JOINT HandTipLeft
              {
                OFFSET -1.443056 -6.271607 -2.252154
                CHANNELS 3 Zrotation Xrotation Yrotation
                End Site
                {
                  OFFSET 0 0 0
                }
              }
              JOINT ThumbLeft
              {
                OFFSET 3.389430 -1.124267 -1.546135
                CHANNELS 3 Zrotation Xrotation Yrotation
                End Site
                {
                  OFFSET 0 0 0
                }
              }
            }
          }
        }
      }
      JOINT ShoulderRight
      {
        OFFSET 15.964547 -2.032972 -2.622404
        CHANNELS 3 Zrotation Xrotation Yrotation
        JOINT ElbowRight
        {
          OFFSET 7.136073 -24.844584 -1.048166
          CHANNELS 3 Zrotation Xrotation Yrotation
          JOINT WristRight
          {
            OFFSET -0.534954 -19.698366 -6.746309
            CHANNELS 3 Zrotation Xrotation Yrotation
            JOINT HandRight
            {
              OFFSET -2.079934 -6.437903 -3.368204
              CHANNELS 3 Zrotation Xrotation Yrotation
              JOINT HandTipRight
              {
                OFFSET 1.583315 -7.001149 -1.307206
                CHANNELS 3 Zrotation Xrotation Yrotation
                End Site
                {
                  OFFSET 0 0 0
                }
              }
              JOINT ThumbRight
              {
                OFFSET -2.193932 -2.091512 0.737360
                CHANNELS 3 Zrotation Xrotation Yrotation
                End Site
                {
                  OFFSET 0 0 0
                }
              }
            }
          }
        }
      }
    }
  }
  JOINT HipLeft
  {
    OFFSET -7.310618 0.710100 -2.913579
    CHANNELS 3 Zrotation Xrotation Yrotation
    JOINT KneeLeft
    {
      OFFSET -4.288887 -28.951454 -0.541135
      CHANNELS 3 Zrotation Xrotation Yrotation
      JOINT AnkleLeft
      {
        OFFSET -2.349988 -32.440987 3.596000
        CHANNELS 3 Zrotation Xrotation Yrotation
        JOINT FootLeft
        {
          OFFSET -0.515739 -3.807254 -13.199104
          CHANNELS 3 Zrotation Xrotation Yrotation
          End Site
          {
            OFFSET 0 0 0
          }
        }
      }
    }
  }
  JOINT HipRight
  {
    OFFSET 7.421959 0.664355 -3.912677
    CHANNELS 3 Zrotation Xrotation Yrotation
    JOINT KneeRight
    {
      OFFSET 4.100037 -27.516918 7.029375
      CHANNELS 3 Zrotation Xrotation Yrotation
      JOINT AnkleRight
      {
        OFFSET 1.115783 -31.852606 8.580072
        CHANNELS 3 Zrotation Xrotation Yrotation
        JOINT FootRight
        {
          OFFSET 3.432103 -7.641951 -4.260663
          CHANNELS 3 Zrotation Xrotation Yrotation
          End Site
          {
            OFFSET 0 0 0
          }
        }
      }
    }
  }
}
MOTION
Frames: 11
Frame Time: 0.033333
2.085190 67.482822 389.276175 4.997377 4.343063 41.197788 -0.239458 1.062128 -41.315322 -0.508099 0.127374 0.102578 8.308213 23.959636 9.142870 0.000000 0.000000 0.000000 -10.296182 -22.765556 -0.066534 11.977817 -3.372725 -7.475825 -17.786236 7.009100 9.962299 22.162473 3.395239 -7.386619 0.000000 0.000000 0.000000 0.000000 0.000000 0.000000 -82.151659 21.404387 31.470424 -14.660092 -24.418321 -13.684880 2.956526 -3.146886 6.816234 -36.149335 10.000963 -16.022429 0.000000 0.000000 0.000000 0.000000 0.000000 0.000000 -7.021460 7.386390 -42.036212 -0.865683 -3.247648 -0.351465 -0.512853 -9.203024 30.131945 0.000000 0.000000 0.000000 -3.932146 0.980650 -40.681297 -6.213939 -8.600012 -2.678955 -1.682813 -1.874555 1.400389 0.000000 0.000000 0.000000
2.151585 68.189489 389.439017 3.954532 4.485758 44.487350 -0.403136 1.238831 -44.617533 -0.549795 0.059863 0.046554 8.270744 23.263801 9.126648 0.000000 0.000000 0.000000 -8.889815 -22.827453 0.097792 9.948725 -0.448570 -6.144068 -16.951756 4.553376 8.852643 24.570638 2.391582 -8.298997 0.000000 0.000000 0.000000 0.000000 0.000000 0.000000 -74.492361 24.376966 32.230810 -27.073176 -23.116482 -18.981786 4.293548 -5.434854 6.367130 -36.834389 13.433251 -11.283387 0.000000 0.000000 0.000000 0.000000 0.000000 0.000000 -5.345751 7.605532 -45.510230 -0.758461 -4.074380 -0.264139 -0.719745 -9.413683 30.943011 0.000000 0.000000 0.000000 -3.328993 0.136851 -43.941980 -6.479700 -8.161767 -2.696172 -1.225513 -1.415535 1.585052 0.000000 0.000000 0.000000
2.071749 68.653395 389.566296 2.846954 4.595924 46.241096 -0.486532 1.341603 -46.372610 -0.573431 0.017532 -0.006612 5.871088 23.342463 9.214141 0.000000 0.000000 0.000000 -7.565008 -22.891692 0.252979 6.882155 3.552099 -4.041855 -15.123898 1.374801 6.849868 26.974298 1.810037 -9.347203 0.000000 0.000000 0.000000 0.000000 0.000000 0.000000 -66.078874 27.388550 32.243897 -43.316114 -19.828106 -24.406722 10.185149 -4.705540 6.191208 -38.167725 15.104730 -8.529192 0.000000 0.000000 0.000000 0.000000 0.000000 0.000000 -3.873024 7.083809 -47.371667 -0.942709 -4.566998 -0.217839 -0.871009 -9.443362 31.344675 0.000000 0.000000 0.000000 -2.640092 -0.949957 -45.618683 -6.837687 -7.695537 -2.733320 -0.578010 -0.768891 1.720101 0.000000 0.000000 0.000000
2.001515 68.854744 389.696898 1.788590 4.666957 47.259276 -0.456038 1.277364 -47.376301 -0.495056 -0.013433 -0.037696 3.383063 22.872960 9.079846 0.000000 0.000000 0.000000 -6.529357 -23.547229 0.418007 2.028929 9.627488 -0.618513 -12.642647 -2.180214 4.214936 27.771624 -0.642296 -9.134996 0.000000 0.000000 0.000000 0.000000 0.000000 0.000000 -56.597736 30.926885 31.719724 -60.014069 -14.532288 -28.015058 11.787854 -5.603576 6.656224 -37.344009 17.778926 -7.262682 0.000000 0.000000 0.000000 0.000000 0.000000 0.000000 -2.737932 6.420633 -48.424751 -1.145591 -4.944368 -0.205266 -1.007401 -9.694973 32.465601 0.000000 0.000000 0.000000 -1.902779 -2.010132 -46.525221 -7.207872 -7.335936 -2.792112 -0.118784 -0.057799 1.965679 0.000000 0.000000 0.000000
1.971813 68.799675 389.790977 0.621842 4.651401 46.905792 -0.564688 1.178118 -47.007153 -0.458315 -0.072590 -0.080482 -0.812077 23.224239 9.096133 0.000000 0.000000 0.000000 -5.228764 -23.623583 0.625660 -3.093824 13.930310 3.172245 -10.744833 -4.949205 2.062000 30.142067 -0.608178 -10.349848 0.000000 0.000000 0.000000 0.000000 0.000000 0.000000 -50.789962 34.748085 33.108436 -74.387283 -8.459627 -31.262892 13.470391 -9.293795 5.226464 -38.942629 20.211934 -8.554760 0.000000 0.000000 0.000000 0.000000 0.000000 0.000000 -2.009696 5.683302 -48.016986 -0.871309 -4.989870 -0.160816 -1.182972 -9.493422 32.206544 0.000000 0.000000 0.000000 -1.072467 -2.914895 -46.090092 -7.287504 -7.118771 -2.795349 0.808922 0.311349 1.661480 0.000000 0.000000 0.000000
1.954220 68.481681 389.847223 -0.579093 4.586588 45.265583 -0.781031 1.082668 -45.358575 -0.373007 -0.119801 -0.122781 -5.357671 23.791404 9.236515 0.000000 0.000000 0.000000 -3.857135 -21.948342 0.762914 -7.328332 14.970983 6.242671 -9.941617 -5.474273 1.193045 31.082562 -2.494060 -10.442859 0.000000 0.000000 0.000000 0.000000 0.000000 0.000000 -48.965279 38.957863 36.762628 -84.678262 -1.831153 -34.204991 9.508456 -15.324069 2.900448 -38.629807 23.940471 -13.941242 0.000000 0.000000 0.000000 0.000000 0.000000 0.000000 -1.619514 4.900029 -46.263154 -0.345098 -4.810911 -0.113957 -1.353246 -9.073624 31.358144 0.000000 0.000000 0.000000 -0.097109 -3.671766 -44.367260 -7.241891 -6.943571 -2.781277 1.282247 0.813990 1.716299 0.000000 0.000000 0.000000
2.006846 68.111670 389.868390 -1.960098 4.471362 43.371718 -1.103132 1.011886 -43.468201 -0.293530 -0.141036 -0.178063 -8.498427 24.321169 9.490866 0.000000 0.000000 0.000000 -2.639550 -20.071037 0.834741 -10.130876 14.189415 8.238088 -8.377276 -4.708237 0.680949 30.845673 -4.012067 -10.125132 0.000000 0.000000 0.000000 0.000000 0.000000 0.000000 -50.025095 43.972779 43.173071 -95.379128 6.470509 -38.912933 10.416962 -18.825786 0.139425 -40.602843 26.884999 -22.092326 0.000000 0.000000 0.000000 0.000000 0.000000 0.000000 -1.128608 4.212364 -44.249211 0.317344 -4.703351 -0.064797 -1.374735 -8.404414 29.849964 0.000000 0.000000 0.000000 0.872762 -4.336168 -42.456980 -6.839493 -6.634492 -2.642741 1.686503 0.635328 1.444196 0.000000 0.000000 0.000000
2.042922 67.837835 389.918584 -3.296252 4.236986 41.241429 -1.307133 0.854972 -41.343341 -0.240889 -0.139314 -0.228941 -12.349240 25.100761 9.931860 0.000000 0.000000 0.000000 -2.020621 -17.913218 0.812021 -10.597340 11.185247 8.471649 -6.049043 -0.705320 1.295072 27.608317 -6.375547 -8.615484 0.000000 0.000000 0.000000 0.000000 0.000000 0.000000 -57.662476 49.020221 54.942893 -103.013946 16.616669 -45.865348 12.053402 -22.715775 -4.383721 -46.646505 30.093533 -36.347022 0.000000 0.000000 0.000000 0.000000 0.000000 0.000000 -0.436961 3.543970 -41.999684 0.766392 -4.480014 -0.034924 -1.233209 -7.608836 27.653686 0.000000 0.000000 0.000000 1.886897 -4.804146 -40.332653 -6.348065 -6.249165 -2.466683 1.215944 0.553694 1.769713 0.000000 0.000000 0.000000
2.071863 67.643157 389.968849 -4.472537 3.968576 38.618589 -1.362065 0.520485 -38.726637 -0.137413 -0.155220 -0.260208 -15.773666 26.042883 10.524860 0.000000 0.000000 0.000000 -2.214111 -15.462447 0.712829 -8.927025 6.439362 7.240085 -11.798570 10.771850 8.473236 29.482401 -15.697642 -8.627999 0.000000 0.000000 0.000000 0.000000 0.000000 0.000000 -70.738630 52.676484 71.647969 -107.086672 27.819097 -54.437366 10.652949 -28.895021 -13.483713 -53.842554 33.347909 -56.393654 0.000000 0.000000 0.000000 0.000000 0.000000 0.000000 0.142901 2.830233 -39.244603 1.071622 -4.004154 -0.039440 -1.007008 -6.834819 25.300985 0.000000 0.000000 0.000000 2.890230 -4.885494 -37.733236 -5.677704 -6.032246 -2.272126 0.244742 0.027531 2.101452 0.000000 0.000000 0.000000
2.098730 67.519860 390.013810 -5.836826 3.801154 35.849017 -1.596078 0.612154 -35.982547 -0.160451 -0.071310 -0.325325 -16.009511 26.312108 10.926885 0.000000 0.000000 0.000000 -1.780038 -13.178536 0.678052 -7.564400 1.956317 6.343506 -16.612569 18.787752 14.688223 33.435360 -23.090797 -8.631078 0.000000 0.000000 0.000000 0.000000 0.000000 0.000000 -84.113919 53.821969 89.660818 -110.767730 40.082693 -63.831808 10.883321 -32.454789 -21.988076 -51.504517 33.562705 -77.841047 0.000000 0.000000 0.000000 0.000000 0.000000 0.000000 0.939093 1.751415 -36.315300 1.116237 -3.372832 -0.083799 -0.730686 -6.238346 23.290045 0.000000 0.000000 0.000000 3.979004 -5.068195 -34.976550 -4.936397 -5.697601 -2.043365 -1.122959 -0.775818 2.535087 0.000000 0.000000 0.000000
2.115370 67.554814 390.081047 -7.285466 3.753207 33.334469 -1.729896 0.774654 -33.479797 -0.205439 0.064624 -0.388265 -12.606405 25.693276 10.771725 0.000000 0.000000 0.000000 -1.505001 -11.799630 0.648499 -5.094853 -1.925423 5.093788 -24.619033 25.378403 22.996684 37.073777 -31.200539 -8.095788 0.000000 0.000000 0.000000 0.000000 0.000000 0.000000 -94.829337 54.472036 106.735511 -112.602631 50.862471 -71.510963 -3.696130 -40.983964 -49.800693 -50.828540 27.603502 -96.676919 0.000000 0.000000 0.000000 0.000000 0.000000 0.000000 1.947971 0.475428 -33.625273 0.963016 -2.709749 -0.147017 -0.433939 -5.781987 21.579128 0.000000 0.000000 0.000000 5.066169 -5.346644 -32.460124 -4.220442 -5.306083 -1.815186 -2.545908 -1.065010 3.270997 0.000000 0.000000 0.000000
